<?xml version="1.0" encoding="UTF-8" standalone="no"?>
<!-- Generator: Adobe Illustrator 19.0.0, SVG Export Plug-In . SVG Version: 6.00 Build 0)  -->

<svg
   xmlns:dc="http://purl.org/dc/elements/1.1/"
   xmlns:cc="http://creativecommons.org/ns#"
   xmlns:rdf="http://www.w3.org/1999/02/22-rdf-syntax-ns#"
   xmlns:svg="http://www.w3.org/2000/svg"
   xmlns="http://www.w3.org/2000/svg"
   xmlns:sodipodi="http://sodipodi.sourceforge.net/DTD/sodipodi-0.dtd"
   xmlns:inkscape="http://www.inkscape.org/namespaces/inkscape"
   version="1.1"
   id="Capa_1"
   x="0px"
   y="0px"
   viewBox="0 0 1000 1000"
   xml:space="preserve"
   sodipodi:docname="tophat_color.svg"
   width="1000"
   height="1000"
   inkscape:version="0.92.2 (5c3e80d, 2017-08-06)"
   enable-background="new"><metadata
     id="metadata41"><rdf:RDF><cc:Work
         rdf:about=""><dc:format>image/svg+xml</dc:format><dc:type
           rdf:resource="http://purl.org/dc/dcmitype/StillImage" /><dc:title /></cc:Work></rdf:RDF></metadata><defs
     id="defs39"><filter
       inkscape:collect="always"
       style="color-interpolation-filters:sRGB"
       id="filter940"><feBlend
         inkscape:collect="always"
         mode="darken"
         in2="BackgroundImage"
         id="feBlend942" /></filter><filter
       inkscape:collect="always"
       style="color-interpolation-filters:sRGB"
       id="filter984"><feBlend
         inkscape:collect="always"
         mode="saturation"
         in2="BackgroundImage"
         id="feBlend986" /></filter><filter
       inkscape:collect="always"
       style="color-interpolation-filters:sRGB"
       id="filter984-5"><feBlend
         inkscape:collect="always"
         mode="saturation"
         in2="BackgroundImage"
         id="feBlend986-6" /></filter><filter
       inkscape:collect="always"
       style="color-interpolation-filters:sRGB"
       id="filter940-3"><feBlend
         inkscape:collect="always"
         mode="darken"
         in2="BackgroundImage"
         id="feBlend942-5" /></filter><filter
       inkscape:collect="always"
       style="color-interpolation-filters:sRGB"
       id="filter940-3-5"><feBlend
         inkscape:collect="always"
         mode="darken"
         in2="BackgroundImage"
         id="feBlend942-5-4" /></filter></defs><sodipodi:namedview
     pagecolor="#ffffff"
     bordercolor="#666666"
     borderopacity="1"
     objecttolerance="10"
     gridtolerance="10"
     guidetolerance="10"
     inkscape:pageopacity="0"
     inkscape:pageshadow="2"
     inkscape:window-width="3840"
     inkscape:window-height="1973"
     id="namedview37"
     showgrid="false"
     inkscape:zoom="0.77289121"
     inkscape:cx="-602.92781"
     inkscape:cy="115.10002"
     inkscape:window-x="1902"
     inkscape:window-y="-18"
     inkscape:window-maximized="1"
     inkscape:current-layer="layer4" /><g
     inkscape:groupmode="layer"
     id="layer4"
     inkscape:label="Overlay"
     style="opacity:1;"><rect
       style="opacity:1;fill:#ffff02;fill-opacity:1;stroke:none;stroke-width:1.28869784;stroke-miterlimit:4;stroke-dasharray:none;stroke-opacity:1;filter:url(#filter940)"
       id="rect861-4"
       width="389.82086"
       height="389.82086"
       x="367.91132"
       y="548.90863"
       transform="matrix(1.1126571,0,0,1.1477458,-96.830108,-187.52666)" /><rect
       style="opacity:1;fill:#0070ff;fill-opacity:1;stroke:none;stroke-width:1.73289621;stroke-miterlimit:4;stroke-dasharray:none;stroke-opacity:1"
       id="rect861"
       width="538.61285"
       height="510.14828"
       x="242.10394"
       y="151.9678" /><rect
       style="opacity:1;fill:#0070ff;fill-opacity:1;stroke:none;stroke-width:1.73289621;stroke-miterlimit:4;stroke-dasharray:none;stroke-opacity:1;filter:url(#filter984)"
       id="rect861-5"
       width="538.61285"
       height="510.14828"
       x="473.35953"
       y="59.188965"
       transform="matrix(0.65556278,0.05180887,-0.06444035,0.81539501,166.72328,90.052311)" /><rect
       style="opacity:1;fill:#0070ff;fill-opacity:1;stroke:none;stroke-width:1.73289621;stroke-miterlimit:4;stroke-dasharray:none;stroke-opacity:1;filter:url(#filter984-5)"
       id="rect861-5-3"
       width="538.61285"
       height="510.14828"
       x="473.35953"
       y="59.188965"
       transform="matrix(0.65739042,0,0,0.81794144,33.197299,63.683509)" /><rect
       style="opacity:1;fill:#ffff02;fill-opacity:1;stroke:none;stroke-width:1.28869784;stroke-miterlimit:4;stroke-dasharray:none;stroke-opacity:1;filter:url(#filter940-3)"
       id="rect861-4-7"
       width="389.82086"
       height="389.82086"
       x="367.91132"
       y="548.90863"
       transform="matrix(1.2685147,0,0,0.39263856,-96.784497,486.05385)" /><rect
       style="opacity:1;fill:#ffff02;fill-opacity:1;stroke:none;stroke-width:1.28869784;stroke-miterlimit:4;stroke-dasharray:none;stroke-opacity:1;filter:url(#filter940-3-5)"
       id="rect861-4-7-3"
       width="389.82086"
       height="389.82086"
       x="367.91132"
       y="548.90863"
       transform="matrix(1.2685147,0,0,0.39263856,-32.092337,455.64854)" /></g><g
     id="g6"
     transform="translate(0,389.30603)" /><g
     id="g8"
     transform="translate(0,389.30603)" /><g
     id="g10"
     transform="translate(0,389.30603)" /><g
     id="g12"
     transform="translate(0,389.30603)" /><g
     id="g14"
     transform="translate(0,389.30603)" /><g
     id="g16"
     transform="translate(0,389.30603)" /><g
     id="g18"
     transform="translate(0,389.30603)" /><g
     id="g20"
     transform="translate(0,389.30603)" /><g
     id="g22"
     transform="translate(0,389.30603)" /><g
     id="g24"
     transform="translate(0,389.30603)" /><g
     id="g26"
     transform="translate(0,389.30603)" /><g
     id="g28"
     transform="translate(0,389.30603)" /><g
     id="g30"
     transform="translate(0,389.30603)" /><g
     id="g32"
     transform="translate(0,389.30603)" /><g
     id="g34"
     transform="translate(0,389.30603)" /><g
     inkscape:groupmode="layer"
     id="layer3"
     inkscape:label="Hat"
     style="opacity:1"><g
       style=""
       id="g4"
       transform="matrix(1.5945051,0,0,1.5945051,13.122643,13.121845)"><rect
         style="opacity:1;fill:none;fill-opacity:1;stroke:none;stroke-width:0.59258634;stroke-miterlimit:4;stroke-dasharray:none;stroke-opacity:1"
         id="rect850"
         width="577.74432"
         height="577.74432"
         x="0.69590992"
         y="7.9110804" /></g><path
       transform="matrix(1.5945051,0,0,1.5945051,13.122643,13.121845)"
       style=""
       d="m 584.596,403.113 c -13.114,-7.193 -30.056,-11.142 -51.503,-16.139 -11.22,-2.614 -23.61,-5.509 -36.988,-9.239 3.916,-91.125 15.977,-169.155 38.897,-255.954 1.808,-6.845 -0.685,-14.108 -6.317,-18.4 C 466.483,55.987 387.169,29.884 305.35,29.884 c -81.819,0 -161.138,26.102 -223.338,73.496 -5.632,4.29 -8.127,11.553 -6.317,18.4 22.925,86.799 34.983,164.828 38.901,255.954 -13.379,3.732 -25.768,6.626 -36.988,9.239 -21.449,4.997 -38.389,8.944 -51.505,16.139 C 8.782,412.613 0,427.289 0,446.738 c 0,38.744 33.825,73.78 95.244,98.652 56.404,22.841 131.02,35.421 210.103,35.421 79.083,0 153.699,-12.58 210.103,-35.421 61.419,-24.873 95.244,-59.908 95.244,-98.652 0.002,-19.449 -8.779,-34.125 -26.098,-43.625 z M 305.349,64.908 c 70.15,0 138.134,21.055 192.787,59.506 -20.906,81.99 -32.534,159.265 -36.71,246.275 -44.993,13.589 -98.6,21.493 -156.183,21.493 -57.494,0 -103.72105,21.33179 -148.66605,7.78279 -4.172,-87.038 66.96275,58.00121 46.05175,-24.00679 54.65,-38.445 32.5723,-311.05 102.7203,-311.05 z m 0,480.881 c -159.307,0 -75.98743,-189.94272 -75.98743,-236.79272 0,-11.934 -187.25657,122.21172 -143.81057,112.08772 9.279,-2.163 19.328,-4.507 30.161,-7.361 0.225,11.522 0.339,23.275 0.339,35.307 0,7.723 5.059,14.534 12.453,16.765 51.551,15.552 112.701,23.772 176.842,23.772 64.14,0 125.289,-8.219 176.84,-23.772 7.394,-2.23 12.453,-9.042 12.453,-16.765 0,-12.032 0.114,-23.785 0.339,-35.307 10.831,2.854 20.882,5.199 30.161,7.361 43.446,10.124 50.529,13.72 50.529,25.654 0.006,46.849 -111.014,99.051 -270.319,99.051 z"
       id="path2"
       inkscape:connector-curvature="0"
       sodipodi:nodetypes="cccccscccccscscccsccsccsssccscscscccs" /></g></svg>